<svg width="18" height="18" viewBox="0 0 18 18" fill="none" xmlns="http://www.w3.org/2000/svg">
<path d="M1.5 0.5H16.5C17.0523 0.5 17.5 0.947719 17.5 1.5V16.5C17.5 17.0523 17.0523 17.5 16.5 17.5H1.5C0.947719 17.5 0.5 17.0523 0.5 16.5V1.5C0.5 0.947712 0.947712 0.5 1.5 0.5ZM2.18164 15.8242H5.83203V6.26758H2.18164V15.8242ZM12.3047 6.03809C12.0379 6.02366 11.6882 6.00163 11.3477 6.07031C10.7807 6.184 10.2473 6.39826 9.7793 6.73828V6.26172H6.25781V15.8213H9.92188V15.1221C9.92188 14.7419 9.9212 14.3615 9.9209 13.9814L9.9248 10.9424C9.92583 10.7623 9.93257 10.6045 9.95508 10.4658L9.9834 10.333C10.162 9.6741 10.7292 9.29676 11.3291 9.3916H11.3301C11.5346 9.42361 11.6787 9.49396 11.7812 9.58301C11.8579 9.64955 11.9251 9.73885 11.9775 9.8584L12.0244 9.98926C12.0855 10.1997 12.1232 10.4273 12.1396 10.6592L12.1494 10.8926C12.1608 11.9362 12.1588 12.9804 12.1572 14.0283C12.1566 14.398 12.1563 14.7684 12.1562 15.1387V15.8203H15.8281V15.1152C15.8281 14.6631 15.8274 14.2108 15.8271 13.7588L15.8291 10.3711C15.8306 9.82405 15.7723 9.27875 15.6357 8.74023V8.73926L15.5439 8.43066C15.3049 7.72625 14.88 7.12298 14.2354 6.67285C13.7303 6.31916 13.1504 6.07425 12.4873 6.04688C12.4286 6.04444 12.3683 6.04152 12.3047 6.03809ZM4.01855 2C2.86361 1.97402 1.97335 2.88535 1.96777 4.00195C1.96231 5.18418 2.89062 6.03831 3.95898 6.04395C4.98592 6.04894 5.90583 5.36022 6.01074 4.23145L6.02051 4C6.0249 2.87769 5.15552 2.02543 4.01855 2Z" fill="black" stroke="black"/>
</svg>
